<?xml version="1.0" encoding="UTF-8" standalone="no"?><!-- Generator: Gravit.io --><svg xmlns="http://www.w3.org/2000/svg" xmlns:xlink="http://www.w3.org/1999/xlink" style="isolation:isolate" viewBox="0 0 400 400" width="400pt" height="400pt"><g><path d=" M 0.025 196.877 C 1.749 86.508 92.754 -1.699 203.124 0.025 C 313.493 1.748 401.699 92.753 399.975 203.123 C 398.251 313.492 307.246 401.699 196.876 399.975 C 86.507 398.252 -1.699 307.247 0.025 196.877 Z " fill="rgb(35,38,46)"/><clipPath id="_clipPath_WjbPiMFFeXXKErUhRvgHxweh8uO0gIg9"><path d=" M 0.025 196.877 C 1.749 86.508 92.754 -1.699 203.124 0.025 C 313.493 1.748 401.699 92.753 399.975 203.123 C 398.251 313.492 307.246 401.699 196.876 399.975 C 86.507 398.252 -1.699 307.247 0.025 196.877 Z " fill="rgb(35,38,46)"/></clipPath><g clip-path="url(#_clipPath_WjbPiMFFeXXKErUhRvgHxweh8uO0gIg9)"><path d=" M 154.4 260.564 L 128.24 260.564 L 200 84.644 L 271.76 260.564 L 245.6 260.564 L 240.32 246.644 L 159.92 246.644 L 154.4 260.564 Z  M 200 143.444 L 168.56 224.084 L 231.44 224.084 L 200 143.444 Z " fill-rule="evenodd" fill="rgb(188,208,207)"/></g></g></svg>